HIERARCHY
ROOT Hips
{
	OFFSET 0.000000 0.794594 0.001814
	CHANNELS 6 Xposition Yposition Zposition Zrotation Xrotation Yrotation
	JOINT Spine
	{
		OFFSET -0.000000 0.051920 0.010783
		CHANNELS 3 Zrotation Xrotation Yrotation
		JOINT Chest
		{
			OFFSET -0.000000 0.111800 0.002642
			CHANNELS 3 Zrotation Xrotation Yrotation
			JOINT UpperChest
			{
				OFFSET 0.000011 0.124994 0.000757
				CHANNELS 3 Zrotation Xrotation Yrotation
				JOINT Neck
				{
					OFFSET 0.000112 0.117647 -0.020286
					CHANNELS 3 Zrotation Xrotation Yrotation
					JOINT Head
					{
						OFFSET 0.000009 0.074359 -0.000161
						CHANNELS 3 Zrotation Xrotation Yrotation
						JOINT LeftEye
						{
							OFFSET 0.019846 0.051735 0.040589
							CHANNELS 3 Zrotation Xrotation Yrotation
							End Site
							{
								OFFSET -0.000199 0.054090 0.042333
							}
						}
						JOINT RightEye
						{
							OFFSET -0.020226 0.051740 0.040395
							CHANNELS 3 Zrotation Xrotation Yrotation
							End Site
							{
								OFFSET -0.000199 0.054090 0.042333
							}
						}
					}
				}
				JOINT LeftShoulder
				{
					OFFSET 0.022480 0.089795 -0.017341
					CHANNELS 3 Zrotation Xrotation Yrotation
					JOINT LeftUpperArm
					{
						OFFSET 0.087730 -0.000010 0.000425
						CHANNELS 3 Zrotation Xrotation Yrotation
						JOINT LeftLowerArm
						{
							OFFSET 0.210364 0.001462 0.000713
							CHANNELS 3 Zrotation Xrotation Yrotation
							JOINT LeftHand
							{
								OFFSET 0.205444 0.001380 0.000710
								CHANNELS 3 Zrotation Xrotation Yrotation
								JOINT LeftIndexProximal
								{
									OFFSET 0.064499 0.001526 0.020305
									CHANNELS 3 Zrotation Xrotation Yrotation
									JOINT LeftIndexIntermediate
									{
										OFFSET 0.033222 0.000012 0.000212
										CHANNELS 3 Zrotation Xrotation Yrotation
										JOINT LeftIndexDistal
										{
											OFFSET 0.020455 0.000007 0.000130
											CHANNELS 3 Zrotation Xrotation Yrotation
											End Site
											{
												OFFSET 0.020455 0.000007 0.000130
											}
										}
									}
								}
								JOINT LeftLittleProximal
								{
									OFFSET 0.062853 -0.001934 -0.027845
									CHANNELS 3 Zrotation Xrotation Yrotation
									JOINT LeftLittleIntermediate
									{
										OFFSET 0.031399 0.000011 0.000200
										CHANNELS 3 Zrotation Xrotation Yrotation
										JOINT LeftLittleDistal
										{
											OFFSET 0.018096 0.000006 0.000115
											CHANNELS 3 Zrotation Xrotation Yrotation
											End Site
											{
												OFFSET 0.018096 0.000006 0.000115
											}
										}
									}
								}
								JOINT LeftMiddleProximal
								{
									OFFSET 0.066609 0.003802 0.003549
									CHANNELS 3 Zrotation Xrotation Yrotation
									JOINT LeftMiddleIntermediate
									{
										OFFSET 0.037005 0.000014 0.000236
										CHANNELS 3 Zrotation Xrotation Yrotation
										JOINT LeftMiddleDistal
										{
											OFFSET 0.022829 0.000008 0.000145
											CHANNELS 3 Zrotation Xrotation Yrotation
											End Site
											{
												OFFSET 0.022829 0.000008 0.000145
											}
										}
									}
								}
								JOINT LeftRingProximal
								{
									OFFSET 0.066900 0.003345 -0.012193
									CHANNELS 3 Zrotation Xrotation Yrotation
									JOINT LeftRingIntermediate
									{
										OFFSET 0.034327 0.000013 0.000219
										CHANNELS 3 Zrotation Xrotation Yrotation
										JOINT LeftRingDistal
										{
											OFFSET 0.019811 0.000007 0.000126
											CHANNELS 3 Zrotation Xrotation Yrotation
											End Site
											{
												OFFSET 0.019811 0.000007 0.000126
											}
										}
									}
								}
								JOINT LeftThumbProximal
								{
									OFFSET 0.001848 -0.006641 0.017858
									CHANNELS 3 Zrotation Xrotation Yrotation
									JOINT LeftThumbIntermediate
									{
										OFFSET 0.030327 -0.003605 0.035110
										CHANNELS 3 Zrotation Xrotation Yrotation
										JOINT LeftThumbDistal
										{
											OFFSET 0.019149 -0.004134 0.020871
											CHANNELS 3 Zrotation Xrotation Yrotation
											End Site
											{
												OFFSET 0.019148 -0.004134 0.020871
											}
										}
									}
								}
							}
						}
					}
				}
				JOINT RightShoulder
				{
					OFFSET -0.022291 0.089804 -0.017557
					CHANNELS 3 Zrotation Xrotation Yrotation
					JOINT RightUpperArm
					{
						OFFSET -0.087729 0.000010 -0.000425
						CHANNELS 3 Zrotation Xrotation Yrotation
						JOINT RightLowerArm
						{
							OFFSET -0.210400 0.000109 -0.000862
							CHANNELS 3 Zrotation Xrotation Yrotation
							JOINT RightHand
							{
								OFFSET -0.205447 0.000043 -0.000839
								CHANNELS 3 Zrotation Xrotation Yrotation
								JOINT RightIndexProximal
								{
									OFFSET -0.064690 0.001513 0.019688
									CHANNELS 3 Zrotation Xrotation Yrotation
									JOINT RightIndexIntermediate
									{
										OFFSET -0.033222 0.000005 -0.000106
										CHANNELS 3 Zrotation Xrotation Yrotation
										JOINT RightIndexDistal
										{
											OFFSET -0.020455 0.000003 -0.000065
											CHANNELS 3 Zrotation Xrotation Yrotation
											End Site
											{
												OFFSET -0.020455 0.000003 -0.000065
											}
										}
									}
								}
								JOINT RightLittleProximal
								{
									OFFSET -0.062584 -0.001948 -0.028445
									CHANNELS 3 Zrotation Xrotation Yrotation
									JOINT RightLittleIntermediate
									{
										OFFSET -0.031399 0.000005 -0.000100
										CHANNELS 3 Zrotation Xrotation Yrotation
										JOINT RightLittleDistal
										{
											OFFSET -0.018096 0.000003 -0.000057
											CHANNELS 3 Zrotation Xrotation Yrotation
											End Site
											{
												OFFSET -0.018096 0.000003 -0.000057
											}
										}
									}
								}
								JOINT RightMiddleProximal
								{
									OFFSET -0.066640 0.003789 0.002912
									CHANNELS 3 Zrotation Xrotation Yrotation
									JOINT RightMiddleIntermediate
									{
										OFFSET -0.037006 0.000006 -0.000118
										CHANNELS 3 Zrotation Xrotation Yrotation
										JOINT RightMiddleDistal
										{
											OFFSET -0.022829 0.000003 -0.000072
											CHANNELS 3 Zrotation Xrotation Yrotation
											End Site
											{
												OFFSET -0.022829 0.000003 -0.000072
											}
										}
									}
								}
								JOINT RightRingProximal
								{
									OFFSET -0.066782 0.003330 -0.012832
									CHANNELS 3 Zrotation Xrotation Yrotation
									JOINT RightRingIntermediate
									{
										OFFSET -0.034327 0.000005 -0.000109
										CHANNELS 3 Zrotation Xrotation Yrotation
										JOINT RightRingDistal
										{
											OFFSET -0.019810 0.000003 -0.000063
											CHANNELS 3 Zrotation Xrotation Yrotation
											End Site
											{
												OFFSET -0.019810 0.000003 -0.000063
											}
										}
									}
								}
								JOINT RightThumbProximal
								{
									OFFSET -0.002018 -0.006641 0.017839
									CHANNELS 3 Zrotation Xrotation Yrotation
									JOINT RightThumbIntermediate
									{
										OFFSET -0.032510 -0.005698 0.032803
										CHANNELS 3 Zrotation Xrotation Yrotation
										JOINT RightThumbDistal
										{
											OFFSET -0.020784 -0.005080 0.019013
											CHANNELS 3 Zrotation Xrotation Yrotation
											End Site
											{
												OFFSET -0.020784 -0.005080 0.019014
											}
										}
									}
								}
							}
						}
					}
				}
			}
		}
	}
	JOINT LeftUpperLeg
	{
		OFFSET 0.077122 -0.039594 -0.005714
		CHANNELS 3 Zrotation Xrotation Yrotation
		JOINT LeftLowerLeg
		{
			OFFSET 0.000039 -0.343083 0.004042
			CHANNELS 3 Zrotation Xrotation Yrotation
			JOINT LeftFoot
			{
				OFFSET -0.000000 -0.401029 -0.031329
				CHANNELS 3 Zrotation Xrotation Yrotation
				JOINT LeftToes
				{
					OFFSET 0.000000 -0.001594 0.127952
					CHANNELS 3 Zrotation Xrotation Yrotation
					End Site
					{
						OFFSET -0.000000 -0.001594 0.127952
					}
				}
			}
		}
	}
	JOINT RightUpperLeg
	{
		OFFSET -0.077122 -0.039594 -0.005714
		CHANNELS 3 Zrotation Xrotation Yrotation
		JOINT RightLowerLeg
		{
			OFFSET -0.000006 -0.343087 0.003707
			CHANNELS 3 Zrotation Xrotation Yrotation
			JOINT RightFoot
			{
				OFFSET -0.000000 -0.401029 -0.031326
				CHANNELS 3 Zrotation Xrotation Yrotation
				JOINT RightToes
				{
					OFFSET -0.000000 -0.001593 0.127952
					CHANNELS 3 Zrotation Xrotation Yrotation
					End Site
					{
						OFFSET -0.000000 -0.001593 0.127952
					}
				}
			}
		}
	}
}
MOTION
Frames: 4
Frame Time: 0.016667
-0.053575 0.793169 0.018573 -12.623940 0.904915 -6.251475 -1.017802 0.143895 -0.809228 4.755018 -4.466845 -0.679103 0.844291 -4.203205 -0.436512 -3.025162 -1.516846 -2.039953 20.572188 17.247766 -0.900952 0.471327 0.005984 1.446535 0.471327 0.005984 1.446535 -4.976092 -0.069460 -0.705358 -82.128783 -17.339981 -23.319574 26.954797 -3.415881 -130.245342 30.016274 -41.886238 15.953495 7.307768 5.346320 0.078505 -0.007852 -1.223880 -3.379601 10.706257 -1.561863 -2.903940 -25.154736 20.561429 -3.713601 -53.171892 2.045090 -3.140955 -53.175758 2.045465 -3.140940 -58.901134 0.181385 -1.037532 -58.971368 2.361288 -2.918073 -58.978151 2.361586 -2.917811 -59.132943 7.132785 2.564220 -58.969852 2.361225 -2.918165 -58.982686 2.361843 -2.917656 -6.986641 6.331017 -1.755015 4.531360 -2.477806 7.920535 2.646015 -3.192737 -10.591736 -0.000154 -0.000024 -0.000028 68.709135 30.018497 -47.169163 -0.339196 -3.112592 108.853654 121.443946 49.979209 -99.296245 31.942872 -2.883796 0.498471 31.579643 -0.318577 5.576506 31.579612 -0.318544 5.576534 31.118786 4.157240 9.335687 31.713989 0.652159 4.407425 31.713989 0.652131 4.407487 31.915654 -1.334589 1.655887 31.714194 0.652220 4.407656 31.713811 0.652196 4.407650 31.714105 0.652403 4.407954 31.714255 0.652283 4.407619 31.713849 0.652155 4.407685 -6.913550 -4.802369 -13.870533 4.856436 1.367086 -23.928760 3.634873 0.788385 -19.580520 17.393458 -12.885850 -2.824120 0.008496 30.508010 0.089585 -9.396772 -7.337655 -5.362486 -0.000000 0.000001 -0.000000 18.073213 1.269201 29.808134 0.001089 12.421845 0.014123 2.954423 2.850778 -8.576668 0.000001 0.000001 0.000002 
-0.053512 0.793173 0.018567 -12.633414 0.889681 -6.234634 -1.015463 0.129034 -0.808243 4.756059 -4.472630 -0.679852 0.845306 -4.208999 -0.437331 -3.025175 -1.517346 -2.041737 20.586438 17.277450 -0.863805 0.471480 0.006090 1.446554 0.471481 0.006090 1.446554 -4.976089 -0.069467 -0.705359 -82.053986 -17.294645 -23.288013 26.934813 -3.401196 -130.202257 30.020382 -41.892736 15.945652 7.284367 5.345883 0.080672 -0.007919 -1.224881 -3.380302 10.695224 -1.561712 -2.904549 -25.071697 20.556236 -3.742764 -53.094045 2.040688 -3.143739 -53.097908 2.041071 -3.143704 -58.823222 0.179856 -1.037777 -58.893491 2.357196 -2.921271 -58.900259 2.357494 -2.921020 -59.054505 7.136147 2.554481 -58.891974 2.357141 -2.921387 -58.904781 2.357741 -2.920860 -6.986638 6.331026 -1.755009 4.528026 -2.472590 7.933723 2.644552 -3.190616 -10.585184 -0.000126 -0.000020 -0.000024 68.706772 30.020498 -47.169488 -0.338843 -3.112717 108.859268 121.434603 49.957376 -99.268754 31.942869 -2.883828 0.498464 31.579653 -0.318579 5.576492 31.579595 -0.318545 5.576556 31.118799 4.157225 9.335681 31.713996 0.652160 4.407435 31.713975 0.652136 4.407484 31.915667 -1.334595 1.655876 31.714204 0.652228 4.407665 31.713811 0.652202 4.407661 31.714102 0.652375 4.407953 31.714238 0.652283 4.407628 31.713849 0.652163 4.407704 -6.913564 -4.802388 -13.870546 4.856455 1.367087 -23.928772 3.634876 0.788392 -19.580525 17.390444 -12.881096 -2.850453 0.008498 30.515304 0.089564 -9.393098 -7.339988 -5.356688 0.000000 0.000001 0.000000 18.071922 1.288391 29.783965 0.001172 12.405222 0.014092 2.957097 2.855091 -8.572648 0.000000 -0.000001 -0.000000 
-0.053446 0.793176 0.018563 -12.643126 0.874351 -6.217809 -1.012939 0.114311 -0.807232 4.757101 -4.478415 -0.680597 0.846312 -4.214791 -0.438152 -3.025008 -1.518035 -2.043469 20.600283 17.306069 -0.827911 0.471471 0.006339 1.446417 0.471471 0.006339 1.446417 -4.976097 -0.069461 -0.705364 -81.976518 -17.250124 -23.257644 26.914466 -3.386230 -130.158544 30.025160 -41.899256 15.939532 7.260249 5.345406 0.082927 -0.007873 -1.225897 -3.381038 10.683884 -1.561560 -2.905167 -24.989145 20.551033 -3.771747 -53.016676 2.036333 -3.146487 -53.020501 2.036701 -3.146469 -58.745767 0.178332 -1.038027 -58.816070 2.353125 -2.924448 -58.822819 2.353447 -2.924205 -58.976477 7.139471 2.544783 -58.814554 2.353077 -2.924559 -58.827374 2.353677 -2.924052 -6.986659 6.331018 -1.755012 4.524612 -2.467245 7.947320 2.643051 -3.188397 -10.578430 -0.000133 -0.000021 -0.000025 68.704634 30.022503 -47.170253 -0.338781 -3.112815 108.865279 121.424890 49.935438 -99.241255 31.942869 -2.883799 0.498468 31.579656 -0.318580 5.576501 31.579598 -0.318546 5.576545 31.118799 4.157231 9.335680 31.714003 0.652150 4.407421 31.713979 0.652152 4.407492 31.915688 -1.334606 1.655889 31.714184 0.652233 4.407653 31.713805 0.652202 4.407659 31.714095 0.652385 4.407951 31.714259 0.652290 4.407621 31.713873 0.652157 4.407699 -6.913565 -4.802378 -13.870533 4.856447 1.367093 -23.928769 3.634870 0.788378 -19.580518 17.387437 -12.876005 -2.876976 0.008488 30.522469 0.089557 -9.389266 -7.342362 -5.350700 -0.000000 -0.000000 0.000001 18.070616 1.308063 29.759650 0.001162 12.388069 0.014102 2.959865 2.859486 -8.568508 0.000000 -0.000001 0.000000 
-0.053380 0.793180 0.018560 -12.651809 0.856908 -6.204535 -1.009688 0.099450 -0.803914 4.758154 -4.483943 -0.681253 0.847350 -4.220345 -0.438864 -3.025429 -1.518961 -2.045210 20.613706 17.333639 -0.793367 0.471467 0.006119 1.446494 0.471468 0.006119 1.446494 -4.976097 -0.069460 -0.705368 -81.897793 -17.213178 -23.221050 26.899868 -3.375425 -130.126906 30.044892 -41.901640 15.950551 7.235487 5.344923 0.085230 -0.007915 -1.226951 -3.381790 10.672227 -1.561418 -2.905807 -24.907151 20.545843 -3.800534 -52.939775 2.031981 -3.149225 -52.943617 2.032358 -3.149200 -58.668811 0.176819 -1.038265 -58.739149 2.349085 -2.927609 -58.745931 2.349399 -2.927353 -58.899002 7.142767 2.535146 -58.737653 2.349036 -2.927719 -58.750480 2.349634 -2.927203 -6.986642 6.331025 -1.755007 4.521106 -2.461719 7.961311 2.641496 -3.186146 -10.571465 -0.000147 -0.000021 -0.000027 68.702947 30.028008 -47.173043 -0.338237 -3.112957 108.872409 121.407992 49.913885 -99.211633 31.942862 -2.883815 0.498462 31.579649 -0.318583 5.576498 31.579605 -0.318550 5.576550 31.118810 4.157225 9.335676 31.714009 0.652137 4.407425 31.713941 0.652150 4.407472 31.915674 -1.334607 1.655882 31.714201 0.652240 4.407651 31.713805 0.652189 4.407665 31.714091 0.652377 4.407946 31.714266 0.652281 4.407630 31.713866 0.652152 4.407688 -6.913548 -4.802385 -13.870565 4.856443 1.367105 -23.928764 3.634889 0.788357 -19.580511 17.383532 -12.866991 -2.900950 0.008511 30.528818 0.089513 -9.385237 -7.344947 -5.344340 -0.000000 -0.000000 0.000001 18.068393 1.329592 29.737858 0.001129 12.373011 0.014096 2.962815 2.862974 -8.564034 0.000000 -0.000001 0.000001 
